Coordinates
version=1
nRows=7
nColumns=46
inDegrees=yes

Units are S.I. units (second, meters, Newtons, ...)
Angles are in degrees.

endheader
time	pelvis_tilt	pelvis_list	pelvis_rotation	pelvis_tx	pelvis_ty	pelvis_tz	bb_angle	bb_tx	bb_ty	bb_tz	hip_flexion_r	hip_adduction_r	hip_rotation_r	knee_angle_r	knee_angle_r_beta	ankle_angle_r	subtalar_angle_r	mtp_angle_r	crank_angle_r	hip_flexion_l	hip_adduction_l	hip_rotation_l	knee_angle_l	knee_angle_l_beta	ankle_angle_l	subtalar_angle_l	mtp_angle_l	crank_angle_l	lumbar_extension	lumbar_bending	lumbar_rotation	arm_flex_r	arm_add_r	arm_rot_r	elbow_flex_r	pro_sup_r	wrist_flex_r	wrist_dev_r	arm_flex_l	arm_add_l	arm_rot_l	elbow_flex_l	pro_sup_l	wrist_flex_l	wrist_dev_l
      5.00500000	    -20.25632307	      5.56738685	      3.28366659	      0.33877479	      1.11210322	     -0.29635290	      0.00000000	      0.50000000	      0.00000000	      0.25000000	     43.85409406	    -13.08111065	      1.14745297	     59.44756327	      1.03755571	    -30.05289494	     -2.07415832	      0.00000000	      0.00000000	     72.10295010	     -4.65647394	     -4.68143868	     82.25862796	      1.43568390	      8.72722859	     -3.08009631	      0.00000000	      0.00000000	    -68.18252778	     -7.08276678	     -7.78951955	     74.86722341	    -18.22224697	     32.50749218	     53.37861654	     44.56126179	      0.00000000	      0.00000000	     71.89652708	    -16.73215748	     24.65303552	     78.32939274	     45.41098543	      0.00000000	      0.00000000
      5.01000000	    -20.00899712	      4.63656546	      3.26952997	      0.33851707	      1.11283035	     -0.29636990	      0.00000000	      0.50000000	      0.00000000	      0.25000000	     44.47122698	    -12.12419255	      1.32557196	     61.58043997	      1.07478143	    -30.19699751	     -1.88460800	      0.00000000	      0.00000000	     70.81215726	     -5.16879901	     -4.37189872	     79.76207378	      1.39211081	      8.28553803	     -2.91640822	      0.00000000	      0.00000000	    -68.18932294	     -6.63392205	     -7.14308469	     74.87000012	    -18.10453066	     32.59649810	     53.32483041	     44.56387546	      0.00000000	      0.00000000	     71.74897550	    -16.80455718	     24.60960722	     78.37820632	     45.41646885	      0.00000000	      0.00000000
      5.01500000	    -19.69305925	      4.07653255	      3.13248197	      0.33804099	      1.11298474	     -0.29604798	      0.00000000	      0.50000000	      0.00000000	      0.25000000	     45.28771226	    -11.37568225	      1.84790127	     64.16623794	      1.11991212	    -29.48182977	     -1.81193951	      0.00000000	      0.00000000	     69.49923713	     -5.77809317	     -4.59521170	     77.37229026	      1.35040121	      6.80130119	     -2.57627623	      0.00000000	      0.00000000	    -68.32979456	     -6.46421515	     -6.73519504	     75.43029791	    -18.14523579	     32.80679278	     53.00747346	     44.53256590	      0.00000000	      0.00000000	     71.45001972	    -16.70727912	     24.41097436	     78.46725040	     45.41354636	      0.00000000	      0.00000000
      5.02000000	    -19.47546412	      3.52867322	      3.01744038	      0.33759249	      1.11303006	     -0.29611690	      0.00000000	      0.50000000	      0.00000000	      0.25000000	     46.16715996	    -10.72561749	      2.37073911	     66.57064374	      1.16187692	    -28.71702359	     -0.83158164	      0.00000000	      0.00000000	     68.20874239	     -6.19964746	     -4.66850059	     74.91485386	      1.30751086	      5.58776138	     -2.55751691	      0.00000000	      0.00000000	    -68.20838511	     -6.07993559	     -7.00965379	     77.05457434	    -17.17130540	     36.30553384	     49.48334816	     44.37322851	      0.00000000	      0.00000000	     70.55909102	    -16.93654061	     22.17595882	     79.07796527	     45.30585614	      0.00000000	      0.00000000
      5.02500000	    -19.22564296	      2.77605506	      2.92311918	      0.33724630	      1.11282084	     -0.29605630	      0.00000000	      0.50000000	      0.00000000	      0.25000000	     47.00235346	     -9.91667028	      2.46409893	     68.93316296	      1.20311066	    -28.44822952	     -0.92225101	      0.00000000	      0.00000000	     66.99601581	     -6.83161853	     -4.60194230	     72.60466994	      1.26719054	      4.21447571	     -1.84996670	      0.00000000	      0.00000000	    -68.18057471	     -5.75746790	     -6.49003803	     77.28240168	    -17.04217659	     36.45740774	     49.34241037	     44.36838711	      0.00000000	      0.00000000	     70.31845069	    -17.08030626	     22.12351688	     79.17757790	     45.32080400	      0.00000000	      0.00000000
      5.03000000	    -19.07383687	      2.11312589	      2.75478179	      0.33679239	      1.11211041	     -0.29601638	      0.00000000	      0.50000000	      0.00000000	      0.25000000	     48.05021814	     -9.15392699	      2.65390761	     71.41584557	      1.24644164	    -27.84552815	     -0.92420713	      0.00000000	      0.00000000	     65.85318922	     -7.40395771	     -4.53039942	     70.34716808	      1.22778970	      2.88528637	     -1.33573776	      0.00000000	      0.00000000	    -68.07893185	     -5.46495574	     -6.07182446	     77.62430895	    -16.84174838	     36.73506989	     48.97902279	     44.33943031	      0.00000000	      0.00000000	     70.04134612	    -17.32200178	     21.93584866	     79.31735145	     45.33001382	      0.00000000	      0.00000000
      5.03500000	    -19.00253481	      1.56018563	      2.57107098	      0.33615829	      1.11078442	     -0.29626548	      0.00000000	      0.50000000	      0.00000000	      0.25000000	     49.29273822	     -8.55818248	      2.91800497	     74.03109899	      1.29208643	    -26.84570783	     -0.23080809	      0.00000000	      0.00000000	     64.78540530	     -7.86890852	     -4.56447142	     68.16419449	      1.18968963	      1.45466046	     -1.17983451	      0.00000000	      0.00000000	    -67.72866920	     -4.97710992	     -6.73697056	     79.28337530	    -14.78005858	     40.05125635	     44.80607368	     44.04628975	      0.00000000	      0.00000000	     68.71105017	    -18.89485820	     20.33393769	     81.06387465	     45.48741649	      0.00000000	      0.00000000
